<svg width="184" height="38" viewBox="0 0 184 38" fill="none" xmlns="http://www.w3.org/2000/svg">
<path d="M69.7 10.45L65.125 28H59.95L57.15 16.45L54.25 28H49.075L44.625 10.45H49.2L51.725 23.225L54.85 10.45H59.55L62.55 23.225L65.1 10.45H69.7ZM70.9939 21C70.9939 19.5667 71.2606 18.3083 71.7939 17.225C72.3439 16.1417 73.0856 15.3083 74.0189 14.725C74.9523 14.1417 75.9939 13.85 77.1439 13.85C78.1273 13.85 78.9856 14.05 79.7189 14.45C80.4689 14.85 81.0439 15.375 81.4439 16.025V14.05H85.7189V28H81.4439V26.025C81.0273 26.675 80.4439 27.2 79.6939 27.6C78.9606 28 78.1023 28.2 77.1189 28.2C75.9856 28.2 74.9523 27.9083 74.0189 27.325C73.0856 26.725 72.3439 25.8833 71.7939 24.8C71.2606 23.7 70.9939 22.4333 70.9939 21ZM81.4439 21.025C81.4439 19.9583 81.1439 19.1167 80.5439 18.5C79.9606 17.8833 79.2439 17.575 78.3939 17.575C77.5439 17.575 76.8189 17.8833 76.2189 18.5C75.6356 19.1 75.3439 19.9333 75.3439 21C75.3439 22.0667 75.6356 22.9167 76.2189 23.55C76.8189 24.1667 77.5439 24.475 78.3939 24.475C79.2439 24.475 79.9606 24.1667 80.5439 23.55C81.1439 22.9333 81.4439 22.0917 81.4439 21.025ZM96.5867 24.375V28H94.4117C92.8617 28 91.6534 27.625 90.7867 26.875C89.9201 26.1083 89.4867 24.8667 89.4867 23.15V17.6H87.7867V14.05H89.4867V10.65H93.7617V14.05H96.5617V17.6H93.7617V23.2C93.7617 23.6167 93.8617 23.9167 94.0617 24.1C94.2617 24.2833 94.5951 24.375 95.0617 24.375H96.5867ZM98.118 21.025C98.118 19.575 98.4096 18.3083 98.993 17.225C99.593 16.1417 100.418 15.3083 101.468 14.725C102.535 14.1417 103.751 13.85 105.118 13.85C106.868 13.85 108.326 14.3083 109.493 15.225C110.676 16.1417 111.451 17.4333 111.818 19.1H107.268C106.885 18.0333 106.143 17.5 105.043 17.5C104.26 17.5 103.635 17.8083 103.168 18.425C102.701 19.025 102.468 19.8917 102.468 21.025C102.468 22.1583 102.701 23.0333 103.168 23.65C103.635 24.25 104.26 24.55 105.043 24.55C106.143 24.55 106.885 24.0167 107.268 22.95H111.818C111.451 24.5833 110.676 25.8667 109.493 26.8C108.31 27.7333 106.851 28.2 105.118 28.2C103.751 28.2 102.535 27.9083 101.468 27.325C100.418 26.7417 99.593 25.9083 98.993 24.825C98.4096 23.7417 98.118 22.475 98.118 21.025ZM122.68 13.9C124.28 13.9 125.563 14.4333 126.53 15.5C127.496 16.55 127.98 18 127.98 19.85V28H123.73V20.425C123.73 19.4917 123.488 18.7667 123.005 18.25C122.521 17.7333 121.871 17.475 121.055 17.475C120.238 17.475 119.588 17.7333 119.105 18.25C118.621 18.7667 118.38 19.4917 118.38 20.425V28H114.105V9.5H118.38V15.925C118.813 15.3083 119.405 14.8167 120.155 14.45C120.905 14.0833 121.746 13.9 122.68 13.9ZM141.575 19C142.592 19.2167 143.409 19.725 144.025 20.525C144.642 21.3083 144.95 22.2083 144.95 23.225C144.95 24.6917 144.434 25.8583 143.4 26.725C142.384 27.575 140.959 28 139.125 28H130.95V10.45H138.85C140.634 10.45 142.025 10.8583 143.025 11.675C144.042 12.4917 144.55 13.6 144.55 15C144.55 16.0333 144.275 16.8917 143.725 17.575C143.192 18.2583 142.475 18.7333 141.575 19ZM135.225 17.55H138.025C138.725 17.55 139.259 17.4 139.625 17.1C140.009 16.7833 140.2 16.325 140.2 15.725C140.2 15.125 140.009 14.6667 139.625 14.35C139.259 14.0333 138.725 13.875 138.025 13.875H135.225V17.55ZM138.375 24.55C139.092 24.55 139.642 24.3917 140.025 24.075C140.425 23.7417 140.625 23.2667 140.625 22.65C140.625 22.0333 140.417 21.55 140 21.2C139.6 20.85 139.042 20.675 138.325 20.675H135.225V24.55H138.375ZM153.78 28.2C152.413 28.2 151.18 27.9083 150.08 27.325C148.997 26.7417 148.138 25.9083 147.505 24.825C146.888 23.7417 146.58 22.475 146.58 21.025C146.58 19.5917 146.897 18.3333 147.53 17.25C148.163 16.15 149.03 15.3083 150.13 14.725C151.23 14.1417 152.463 13.85 153.83 13.85C155.197 13.85 156.43 14.1417 157.53 14.725C158.63 15.3083 159.497 16.15 160.13 17.25C160.763 18.3333 161.08 19.5917 161.08 21.025C161.08 22.4583 160.755 23.725 160.105 24.825C159.472 25.9083 158.597 26.7417 157.48 27.325C156.38 27.9083 155.147 28.2 153.78 28.2ZM153.78 24.5C154.597 24.5 155.288 24.2 155.855 23.6C156.438 23 156.73 22.1417 156.73 21.025C156.73 19.9083 156.447 19.05 155.88 18.45C155.33 17.85 154.647 17.55 153.83 17.55C152.997 17.55 152.305 17.85 151.755 18.45C151.205 19.0333 150.93 19.8917 150.93 21.025C150.93 22.1417 151.197 23 151.73 23.6C152.28 24.2 152.963 24.5 153.78 24.5ZM171.598 28L168.923 24.125L166.673 28H162.048L166.648 20.875L161.923 14.05H166.723L169.398 17.9L171.648 14.05H176.273L171.598 21.075L176.398 28H171.598ZM180.045 28.2C179.295 28.2 178.678 27.9833 178.195 27.55C177.728 27.1 177.495 26.55 177.495 25.9C177.495 25.2333 177.728 24.675 178.195 24.225C178.678 23.775 179.295 23.55 180.045 23.55C180.778 23.55 181.378 23.775 181.845 24.225C182.328 24.675 182.57 25.2333 182.57 25.9C182.57 26.55 182.328 27.1 181.845 27.55C181.378 27.9833 180.778 28.2 180.045 28.2Z" fill="white"/>
<path fill-rule="evenodd" clip-rule="evenodd" d="M2.1967 6.1967C0 8.3934 0 11.9289 0 19C0 26.0711 0 29.6066 2.1967 31.8033C4.39339 34 7.92893 34 15 34C22.0711 34 25.6066 34 27.8033 31.8033C30 29.6066 30 26.0711 30 19C30 11.9289 30 8.3934 27.8033 6.1967C25.6066 4 22.0711 4 15 4C7.92893 4 4.39339 4 2.1967 6.1967ZM18.6753 24.2451C18.7576 23.8391 18.4142 23.5 18 23.5H12C11.5858 23.5 11.2424 23.8391 11.3248 24.2451C11.4701 24.962 11.8234 25.6266 12.3484 26.1516C13.0517 26.8549 14.0054 27.25 15 27.25C15.9946 27.25 16.9484 26.8549 17.6516 26.1516C18.1766 25.6266 18.5299 24.962 18.6753 24.2451ZM19.5767 17.3324C19.1766 17.4395 18.9316 17.8581 19.1345 18.2192C19.348 18.5993 19.6433 18.9311 20.0027 19.1885C20.5668 19.5928 21.2537 19.789 21.9463 19.7435C22.6388 19.6982 23.2943 19.4141 23.8008 18.9396C24.3074 18.4652 24.6338 17.8297 24.7244 17.1416C24.815 16.4534 24.6642 15.7552 24.2977 15.1658C23.9312 14.5764 23.3716 14.1323 22.7144 13.9092C22.0571 13.6861 21.3429 13.6978 20.6933 13.9423C20.2796 14.098 19.9085 14.342 19.6039 14.6538C19.3145 14.9501 19.4428 15.4179 19.8015 15.625L20.182 15.8447C20.7606 16.1788 20.6465 17.0457 20.0011 17.2187L19.5767 17.3324ZM10.8656 18.2192C11.0685 17.8581 10.8235 17.4395 10.4234 17.3324L9.99901 17.2187C9.35364 17.0457 9.23949 16.1788 9.81812 15.8447L10.1986 15.625C10.5573 15.4179 10.6857 14.9501 10.3963 14.6538C10.0916 14.342 9.72046 14.098 9.30684 13.9423C8.65726 13.6978 7.94296 13.6861 7.28575 13.9092C6.62851 14.1323 6.06897 14.5764 5.70246 15.1658C5.33594 15.7552 5.18514 16.4534 5.27573 17.1416C5.36632 17.8297 5.69272 18.4652 6.19929 18.9396C6.70586 19.4141 7.36128 19.6982 8.05389 19.7435C8.74644 19.789 9.43336 19.5928 9.99751 19.1885C10.3568 18.9311 10.6521 18.5993 10.8656 18.2192Z" fill="url(#paint0_linear_564_195)"/>
<defs>
<linearGradient id="paint0_linear_564_195" x1="15" y1="4" x2="15" y2="34" gradientUnits="userSpaceOnUse">
<stop stop-color="#9E31AF"/>
<stop offset="1" stop-color="#E62F68"/>
</linearGradient>
</defs>
</svg>
